<?xml version="1.0" standalone="no"?>
<!DOCTYPE svg PUBLIC "-//W3C//DTD SVG 20010904//EN"
 "http://www.w3.org/TR/2001/REC-SVG-20010904/DTD/svg10.dtd">
<svg version="1.0" xmlns="http://www.w3.org/2000/svg"
 width="663.000000pt" height="663.000000pt" viewBox="0 0 663.000000 663.000000"
 preserveAspectRatio="xMidYMid meet">

<g transform="translate(0.000000,663.000000) scale(0.100000,-0.100000)"
fill="#000000" stroke="none">
<path d="M1987 6313 c-16 -15 -3 -61 83 -297 50 -137 90 -252 90 -256 0 -4
-288 -10 -640 -14 -441 -4 -648 -10 -665 -18 -44 -20 -33 -84 76 -418 95 -296
97 -300 121 -300 11 0 182 -89 381 -199 655 -359 700 -383 723 -378 25 4 35
26 -256 -573 -95 -195 -279 -578 -410 -850 -131 -272 -286 -592 -344 -711 -58
-118 -106 -221 -106 -227 0 -6 6 -15 13 -19 7 -4 48 -46 92 -93 81 -88 753
-783 1280 -1323 266 -274 355 -356 355 -330 0 5 4 2 9 -6 5 -8 15 -11 23 -8
23 8 28 134 29 666 l0 476 481 340 c857 605 1028 725 1037 725 5 0 14 -24 21
-52 6 -29 20 -69 32 -88 11 -19 121 -332 243 -695 304 -899 464 -1367 467
-1369 2 -1 16 -10 31 -20 43 -26 71 -18 79 24 13 61 356 2355 365 2440 10 95
-36 92 -51 -3 -65 -398 -243 -1520 -297 -1867 -38 -250 -73 -464 -78 -474 -5
-14 -55 122 -178 490 -314 934 -524 1549 -543 1584 -40 78 -60 57 272 291 167
117 400 283 518 368 118 85 234 168 258 184 24 16 47 38 50 48 6 16 24 1 106
-89 55 -59 162 -174 239 -255 77 -81 137 -150 135 -152 -3 -3 -93 -9 -202 -13
-161 -7 -199 -11 -213 -25 -13 -13 -14 -19 -3 -31 10 -13 40 -16 179 -15 321
2 369 12 346 73 -11 27 -539 593 -565 604 -8 4 -625 5 -1370 2 -745 -3 -1357
-4 -1360 -2 -10 7 -11 2202 -1 2202 15 0 41 67 35 85 -4 9 -19 15 -39 15 -36
0 -40 2 -450 304 -246 181 -359 256 -384 256 -4 0 -11 -3 -14 -7z m406 -322
c158 -117 287 -219 287 -227 0 -11 -23 -14 -118 -14 -66 0 -166 -3 -224 -6
l-106 -7 -16 34 c-26 55 -156 411 -156 427 0 32 56 -3 333 -207z m383 -314 c3
-8 -75 -175 -174 -373 -98 -197 -232 -471 -298 -608 -71 -149 -120 -240 -122
-228 -4 24 -197 133 -966 545 l-138 74 -92 274 c-51 151 -96 282 -100 292 -8
16 3 17 155 17 272 0 1094 12 1098 16 2 2 145 4 318 4 252 0 315 -3 319 -13z
m-2 -2044 c-5 -1050 -9 -2209 -9 -2577 l0 -668 -60 68 c-33 38 -91 101 -130
139 -145 144 -1450 1487 -1453 1495 -4 11 99 229 376 795 423 867 1255 2597
1267 2635 3 11 9 20 12 20 3 0 2 -858 -3 -1907z m1430 -254 l1271 0 -30 -24
c-16 -14 -109 -79 -205 -147 -96 -67 -458 -324 -805 -572 -346 -247 -783 -558
-970 -691 -187 -133 -404 -287 -482 -343 l-143 -101 0 946 0 946 46 -7 c26 -3
619 -6 1318 -7z"/>
</g>
</svg>
